<?xml version="1.0" encoding="utf-8"?>
<!-- Generator: Adobe Illustrator 25.3.1, SVG Export Plug-In . SVG Version: 6.00 Build 0)  -->
<svg version="1.1" id="Layer_1" xmlns="http://www.w3.org/2000/svg" xmlns:xlink="http://www.w3.org/1999/xlink" x="0px" y="0px"
	 viewBox="0 0 64 64" style="enable-background:new 0 0 64 64;" xml:space="preserve">
<style type="text/css">
	.st0{display:none;fill:#111111;}
	.st1{fill:#FFFFFF;}
</style>
<path class="st0" d="M7,29v5l50,1v-7L7,29z M7,11v6h50v-6H7z M7,46v7l50-1v-5L7,46z"/>
<g>
	<path class="st1" d="M11.8,17.6c0-0.1,0-0.1,0-0.2c1.7-1.6,3.4-3.3,5-4.9c0.4-0.4,0.8-0.9,1.3-1.4c5,4.9,9.8,9.6,14.6,14.4
		c0.1-0.1,0.3-0.2,0.4-0.4c4.5-4.5,8.9-9.1,13.4-13.6c0.2-0.2,0.3-0.4,0.4-0.5c0.1,0,0.1,0,0.2,0c2.2,2.1,4.3,4.2,6.5,6.3
		c-4.9,5-9.7,9.8-14.4,14.6c0.1,0.2,0.2,0.2,0.3,0.3c4.6,4.5,9.1,9,13.7,13.5c0.1,0.1,0.3,0.2,0.5,0.3c0,0.1,0,0.1,0,0.2
		c-2.1,2.1-4.3,4.2-6.5,6.4c-4.9-4.8-9.6-9.5-14.5-14.3c-0.6,0.6-1.2,1.2-1.7,1.7c-4.2,4.3-8.4,8.5-12.6,12.8c-0.1,0-0.1,0-0.2,0
		c-1.7-1.8-3.4-3.5-5.2-5.3c-0.4-0.4-0.8-0.7-1.2-1c4.9-5,9.6-9.8,14.5-14.7c-0.5-0.4-0.9-0.8-1.3-1.2C20.7,26.4,16.3,22,11.8,17.6z
		"/>
</g>
</svg>
